<svg width="56" height="56" viewBox="0 0 56 56" fill="none" xmlns="http://www.w3.org/2000/svg">
<rect width="56" height="56" fill="#1E1E1E"/>
<g id="Hotel Booking" clip-path="url(#clip0_0_1)">
<rect width="1488" height="4926" transform="translate(-150 -3135)" fill="white"/>
<g id="Features">
<path id="Rectangle" fill-rule="evenodd" clip-rule="evenodd" d="M-150 -375H1290V418H-150V-375Z" fill="white"/>
<g id="Left" clip-path="url(#clip1_0_1)">
<g id="Item" clip-path="url(#clip2_0_1)">
<g id="Icon">
<rect id="Rectangle_2" width="56" height="56" fill="white"/>
<path id="Shape" fill-rule="evenodd" clip-rule="evenodd" d="M27 7C29.6888 7 31.8818 9.12231 31.9954 11.7831L32 12V18H41.5C44.1888 18 46.3818 20.1223 46.4954 22.7831L46.5 23V44C46.5 46.6888 44.3777 48.8818 41.7169 48.9954L41.5 49H15C12.3112 49 10.1182 46.8777 10.0046 44.2169L10 44V12C10 9.31125 12.1223 7.11818 14.7831 7.00462L15 7H27ZM41.5 20H32V47H41.5C43.0977 47 44.4037 45.7511 44.4949 44.1763L44.5 44V23C44.5 21.4023 43.2511 20.0963 41.6763 20.0051L41.5 20ZM15 9H27L27.1763 9.00509L27.3499 9.02018C28.8419 9.19348 30 10.4615 30 12V47H15L14.8237 46.9949C13.2489 46.9037 12 45.5977 12 44V12L12.0051 11.8237C12.0963 10.2489 13.4023 9 15 9ZM26 30C26.5523 30 27 30.4477 27 31V32C27 32.5523 26.5523 33 26 33H16C15.4477 33 15 32.5523 15 32V31C15 30.4477 15.4477 30 16 30H26ZM42 31C42 30.4477 41.5523 30 41 30H36C35.4477 30 35 30.4477 35 31V32C35 32.5523 35.4477 33 36 33H41C41.5523 33 42 32.5523 42 32V31ZM26 24C26.5523 24 27 24.4477 27 25V26C27 26.5523 26.5523 27 26 27H16C15.4477 27 15 26.5523 15 26V25C15 24.4477 15.4477 24 16 24H26ZM42 25C42 24.4477 41.5523 24 41 24H36C35.4477 24 35 24.4477 35 25V26C35 26.5523 35.4477 27 36 27H41C41.5523 27 42 26.5523 42 26V25ZM26 18C26.5523 18 27 18.4477 27 19V20C27 20.5523 26.5523 21 26 21H16C15.4477 21 15 20.5523 15 20V19C15 18.4477 15.4477 18 16 18H26ZM27 13C27 12.4477 26.5523 12 26 12H16C15.4477 12 15 12.4477 15 13V14C15 14.5523 15.4477 15 16 15H26C26.5523 15 27 14.5523 27 14V13Z" fill="#34CAC6"/>
</g>
</g>
</g>
</g>
</g>
<defs>
<clipPath id="clip0_0_1">
<rect width="1488" height="4926" fill="white" transform="translate(-150 -3135)"/>
</clipPath>
<clipPath id="clip1_0_1">
<rect width="465" height="590" fill="white" transform="translate(0 -274)"/>
</clipPath>
<clipPath id="clip2_0_1">
<rect width="465" height="84" fill="white"/>
</clipPath>
</defs>
</svg>
